# xmcd
#
# Track frame offsets:
#	183
#	17675
#	28240
#	38623
#	53210
#	64715
#	77488
#	97945
#	110545
#	125198
#	137570
#	155945
#	167933
#	179145
#	193315
#	214153
#	230610
#
# Disc length: 3354
#
# Revision: 2
# Processed by: cddbd v1.5.1PL0 Copyright (c) Steve Scherf et al.
# Submitted via: OrangeCD 5.1
# Normalized: r1:DSETVAR1
#
DISCID=f90d1811
DTITLE=Various Artist - Country All Stars - Live [CD 1)
DYEAR=1900
DGENRE=Country
TTITLE0=Tanya Tucker - The Night They Drove Old Dixie Down
TTITLE1=Stella Parton - Danger Of A Stranger
TTITLE2=Bellamy Brothers - Let Your Love Flow
TTITLE3=George Jones - Who's Gonna Fill Their Shoes
TTITLE4=Tammy Wynette - D.I.V.O.R.C.E.
TTITLE5=Lynn Anderson - Rose Garden
TTITLE6=Nitty Gritty Dirt Band - Mr. Bojangles
TTITLE7=Mickey Gilley - Headache Tomorrow, Headache Tonight
TTITLE8=Lynn Anderson - Cry
TTITLE9=Bobby Bare - Tequila Sheila
TTITLE10=Hoyt Axton - Wild Bull Rider
TTITLE11=Mel Tillis - I Believe In You
TTITLE12=George Jones - The Race Is On
TTITLE13=Ronny Robbins - El Paso
TTITLE14=Tanya Tucker - Baby I'm Yours
TTITLE15=Mickey Gilley - You Need A Lady In Your Life
TTITLE16=Tammy Wynette - Medley (Amazing Grace,I'll Fly Away,Will The Circle Be Unbroken, I Saw The Light)
EXTD=
EXTT0=
EXTT1=
EXTT2=
EXTT3=
EXTT4=
EXTT5=
EXTT6=
EXTT7=
EXTT8=
EXTT9=
EXTT10=
EXTT11=
EXTT12=
EXTT13=
EXTT14=
EXTT15=
EXTT16=
PLAYORDER=
